# xmcd
#
# Track frame offsets:
#	150
#	16925
#	27120
#	39237
#	52447
#	66542
#	78070
#	92380
#	102067
#	115660
#	125457
#	136887
#	148990
#	160697
#	177302
#	185787
#	196007
#	213460
#	224685
#	239485
#
# Disc length: 3407 seconds
#
# Revision: 1
# Processed by: cddbd v1.4PL0 Copyright (c) Steve Scherf et al.
# Submitted via: audiograbber 1.81.02
#
DISCID=1e0d4d14
DTITLE=Various Artist - Country Christmas Disc 2
DYEAR=1900
DGENRE=Country
TTITLE0=Dolly Parton - Winter Wonderland
TTITLE1=Buck Owens - Santa Looked Alot Like Daddy
TTITLE2=Dwight Yoakam - Santa Claus Is Back In Town
TTITLE3=Elvis Presley - If Every Day Was Like Christmas
TTITLE4=The Louvin Brothers - It Came Upon A Midnight Clear
TTITLE5=Gene Autry - Here Comes Santa Claus
TTITLE6=George Strait - When It's Christmas Time In Texas
TTITLE7=Hank Snow - Reindeer Boogie
TTITLE8=Ronnie Milsap - It's Christmas
TTITLE9=Loretta Lynn - It Won't Seem Like Christmas
TTITLE10=George Jones - My Mom And Santa Claus
TTITLE11=Tammy Wynette - White Christmas
TTITLE12=Johnny Cash - The Little Drummer Boy
TTITLE13=Alabama - Christmas In Dixie
TTITLE14=Charlie Pride - Let It Snow, Let It Snow, Let It Snow
TTITLE15=Eddy Arnold - C-H-R-I-S-T-M-A-S
TTITLE16=Dolly Parton - Hard Candy Christmas
TTITLE17=Merle Haggard - Goin' Home For Christmas
TTITLE18=John Anderson - The Christmas Song(Chestnuts Roasting On An Open Fire)
TTITLE19=Reba McEntire - Silent Night
EXTD=
EXTT0=
EXTT1=
EXTT2=
EXTT3=
EXTT4=
EXTT5=
EXTT6=
EXTT7=
EXTT8=
EXTT9=
EXTT10=
EXTT11=
EXTT12=
EXTT13=
EXTT14=
EXTT15=
EXTT16=
EXTT17=
EXTT18=
EXTT19=
PLAYORDER=
